<?xml version="1.0" encoding="utf-8"?>
<!-- Generator: Adobe Illustrator 16.0.0, SVG Export Plug-In . SVG Version: 6.00 Build 0)  -->
<!DOCTYPE svg PUBLIC "-//W3C//DTD SVG 1.1 Tiny//EN" "http://www.w3.org/Graphics/SVG/1.1/DTD/svg11-tiny.dtd">
<svg version="1.1" baseProfile="tiny" id="Layer_1" xmlns="http://www.w3.org/2000/svg" xmlns:xlink="http://www.w3.org/1999/xlink"
	 x="0px" y="0px" width="1074px" height="1080px" viewBox="0 0 1074 1080" xml:space="preserve">
<g>
	<circle fill="#55C95D" cx="537" cy="540" r="521.707"/>
	<path fill="#FFFFFF" d="M917.121,352.656c10.668,10.668,10.668,28.126,0,38.794L573.396,735.183
		c-10.668,10.669-28.125,28.126-38.793,38.794L432.859,875.722c-10.668,10.668-28.125,10.668-38.794,0L292.322,773.977
		c-10.668-10.668-28.125-28.125-38.793-38.794L139.346,620.993c-10.668-10.669-10.667-28.126,0.001-38.794l101.734-101.735
		c10.668-10.668,28.126-10.669,38.794-0.001l133.587,133.581l363.131-363.131c10.668-10.668,28.126-10.668,38.794,0L917.121,352.656
		z"/>
</g>
</svg>
